# xmcd
#
# Track frame offsets:
#	220
#	14955
#	29287
#	40552
#	52952
#	66222
#	78267
#	90305
#	102925
#	115272
#	126992
#	139527
#	152305
#	164797
#	178730
#	200752
#	214502
#	224997
#	235587
#
# Disc length: 3323
#
# Revision: 3
# Processed by: cddbd v1.5.1PL0 Copyright (c) Steve Scherf et al.
# Submitted via: CDex 1.51
# Normalized: r2:DSETVAR1,TDELIM( - )
#
DISCID=0a0cf913
DTITLE=Various Artist - Chicago Blues Harmonicas
DYEAR=1991
DGENRE=Blues
TTITLE0=Baby Face Leroy - My Head Can't Rest Any More
TTITLE1=Baby Face Leroy - Take A Little Walk With Me
TTITLE2=Snooky Pryor - Boogy Fool
TTITLE3=Snooky Pryor - Raisin' Sand
TTITLE4=Snooky Pryor - Cryin' Shame
TTITLE5=Snooky Pryor - Eighty Nine Ten
TTITLE6=John Lee Henley - Rythm Rockin' Boogie
TTITLE7=John Lee Henley - Knockin' On Lula Mae's Door
TTITLE8=Little Willie Foster - Crying The Blues
TTITLE9=Little Willie Foster - Little Girl
TTITLE10=Louis Myers - Bluesy
TTITLE11=Arbee Stidham - When I Find My Baby
TTITLE12=Louis Myers - Just Whaling
TTITLE13=Sonny Boy Williamson - Steady Rollin' MAn
TTITLE14=Sonny Boy Williamson - Take Your Hand Out Of My Pocket
TTITLE15=Charles Clark - Row Your Boat
TTITLE16=Shakey Horton - Need My Baby
TTITLE17=Shakey Horton - Have A Good Time
TTITLE18=Shakey Horton - Highway 61
EXTD=YEAR: 1991
EXTT0=
EXTT1=
EXTT2=
EXTT3=
EXTT4=
EXTT5=
EXTT6=
EXTT7=
EXTT8=
EXTT9=
EXTT10=
EXTT11=
EXTT12=
EXTT13=
EXTT14=
EXTT15=
EXTT16=
EXTT17=
EXTT18=
PLAYORDER=
